<?xml version="1.0" standalone="no"?>
<!DOCTYPE svg PUBLIC "-//W3C//DTD SVG 20010904//EN"
 "http://www.w3.org/TR/2001/REC-SVG-20010904/DTD/svg10.dtd">
<svg version="1.0" xmlns="http://www.w3.org/2000/svg"
 width="22" height="22" viewBox="0 0 1240.000000 1112.000000"
 preserveAspectRatio="xMidYMid meet">

<g transform="translate(0.000000,1112.000000) scale(0.100000,-0.100000)"
fill="#000000" stroke="none">
<path d="M0 11028 l0 -92 51 75 c28 41 58 82 67 92 14 16 11 17 -51 17 l-67 0
0 -92z"/>
<path d="M5000 8894 c-119 -32 -221 -117 -277 -231 -32 -65 -37 -86 -41 -162
-4 -78 0 -101 32 -212 45 -156 63 -264 71 -415 3 -65 11 -149 16 -186 10 -64
14 -72 87 -155 42 -48 138 -153 214 -234 170 -181 160 -177 458 -189 245 -10
355 -30 532 -97 114 -44 130 -47 218 -47 121 -1 199 16 302 68 l83 41 3 43 c3
34 -2 49 -22 72 -13 17 -27 39 -31 50 -5 15 -15 20 -45 20 -27 0 -48 8 -69 26
-17 14 -31 29 -31 33 0 19 90 101 139 127 40 22 67 47 104 98 47 64 123 126
154 126 34 0 131 47 170 83 57 52 88 107 103 179 32 161 -64 313 -230 362 -71
21 -118 20 -188 -3 l-57 -19 -79 38 -80 39 -22 66 c-34 101 -80 171 -174 265
-94 95 -174 143 -300 181 -85 26 -174 29 -430 15 -134 -7 -176 -5 -309 13
-179 24 -226 25 -301 5z"/>
<path d="M9337 5729 c-223 -24 -434 -125 -578 -275 -96 -100 -243 -363 -344
-614 -21 -52 -40 -96 -41 -98 -1 -2 -38 17 -81 42 -191 110 -566 278 -796 358
-67 23 -68 23 -79 4 -43 -76 -156 -161 -259 -196 -166 -56 -525 -23 -697 64
-47 24 -118 92 -141 135 l-12 21 -62 -31 c-235 -118 -378 -308 -421 -559 l-12
-75 -65 -36 c-111 -62 -390 -332 -373 -361 4 -6 3 -8 -4 -4 -18 11 -231 -270
-299 -394 -10 -19 -31 -53 -45 -76 -78 -122 -257 -524 -308 -691 -12 -39 -27
-78 -33 -86 -7 -9 -56 -24 -116 -36 -125 -25 -120 -25 -116 -3 1 9 9 16 17 14
8 -1 25 9 37 22 19 20 21 28 11 48 -10 21 -10 21 3 5 13 -15 16 -15 27 -3 6 9
9 19 6 24 -3 6 2 16 12 23 16 13 16 13 2 -5 -11 -14 -11 -18 -2 -12 8 5 29 40
48 79 88 184 -3 245 -188 125 -27 -16 -45 -35 -41 -41 3 -5 1 -7 -4 -4 -13 8
-37 -19 -29 -32 4 -5 1 -13 -5 -17 -8 -4 -9 -3 -5 4 16 26 -11 10 -40 -24 -37
-43 -84 -131 -88 -166 -1 -13 -6 -29 -10 -36 -4 -7 -5 -16 -1 -21 3 -5 1 -12
-3 -15 -5 -3 -19 32 -31 77 -31 113 -111 357 -118 357 -3 0 -2 -8 2 -17 5 -14
4 -15 -6 -6 -14 14 4 43 27 43 15 0 124 59 124 67 0 2 -5 1 -12 -3 -7 -4 -8
-3 -4 5 4 6 12 9 17 6 9 -6 77 57 109 99 13 18 13 19 0 12 -8 -4 -4 1 9 12 16
13 21 24 16 33 -5 8 -4 11 0 6 10 -9 58 90 50 103 -3 4 0 10 6 12 6 2 13 31
16 65 6 66 -7 117 -33 127 -8 3 -13 2 -10 -2 3 -5 -1 -9 -9 -9 -8 0 -12 4 -9
9 3 4 -4 8 -15 8 -12 0 -21 -5 -21 -11 0 -5 -5 -7 -12 -3 -8 5 -9 2 -4 -11 5
-15 4 -16 -8 -6 -24 20 -152 -116 -200 -212 -21 -42 -35 -84 -32 -92 3 -8 1
-15 -5 -15 -6 0 -8 -13 -6 -29 3 -16 2 -32 -1 -36 -3 -3 -7 -15 -9 -28 -2 -12
-8 -26 -14 -32 -7 -7 -10 -5 -7 5 1 8 -4 34 -11 58 -10 30 -17 39 -23 30 -6
-9 -7 -6 -3 8 5 19 -18 87 -35 104 -3 3 -7 14 -8 25 -2 11 -11 33 -20 50 -9
16 -17 32 -17 35 -4 23 -18 50 -25 50 -23 0 6 30 38 41 123 39 214 101 273
185 15 23 25 44 22 48 -4 3 -1 6 6 6 19 0 64 110 67 162 1 28 -3 48 -9 48 -6
0 -8 3 -4 6 7 8 -12 28 -35 36 -21 8 -83 -8 -101 -27 -8 -8 -17 -12 -20 -9 -8
8 -112 -82 -109 -95 1 -7 -1 -10 -6 -7 -19 12 -99 -95 -86 -115 4 -7 3 -9 -3
-6 -12 8 -38 -55 -54 -133 l-12 -54 -26 52 c-15 29 -31 49 -35 45 -5 -4 -6 -3
-2 4 8 14 -29 83 -55 101 -10 7 -16 19 -12 27 3 8 -2 27 -12 41 -9 14 -15 27
-13 28 2 1 32 15 67 31 88 41 152 93 201 165 22 33 38 60 34 60 -4 0 0 8 8 18
21 24 51 108 43 121 -3 6 -2 11 3 11 13 0 13 60 1 92 -6 15 -19 30 -28 33 -38
12 -103 -8 -153 -48 -18 -15 -25 -33 -9 -23 11 7 8 -21 -4 -31 -4 -4 -5 -3 -1
4 11 19 -9 23 -32 7 -22 -15 -32 -41 -10 -28 7 4 8 3 4 -4 -4 -6 -14 -8 -23
-5 -12 5 -15 2 -10 -10 3 -9 -1 -21 -11 -29 -16 -12 -16 -11 -2 7 14 19 14 19
-2 6 -51 -39 -115 -207 -104 -274 4 -27 2 -33 -13 -33 -11 0 -17 6 -14 13 3 7
-8 24 -24 39 -15 15 -22 24 -15 19 11 -6 12 -3 3 14 -7 11 -16 21 -21 21 -6 0
-9 6 -7 13 1 6 -6 11 -16 11 -13 -1 -15 1 -8 10 11 13 -27 78 -58 103 -9 7
-11 13 -6 13 6 0 6 3 0 8 -6 4 -18 19 -28 34 -17 27 -16 27 16 49 47 32 117
101 111 110 -2 4 1 11 7 15 8 5 9 3 4 -6 -5 -9 -4 -11 3 -6 7 4 17 16 23 28 9
16 8 19 -3 13 -7 -3 -5 0 6 9 10 8 15 20 10 27 -4 7 -3 10 4 5 12 -7 47 77 38
92 -3 6 -1 12 5 14 6 2 14 36 17 76 9 132 -45 185 -129 126 -43 -29 -63 -56
-51 -69 4 -5 1 -4 -7 0 -11 6 -13 4 -8 -9 4 -9 3 -15 -2 -11 -13 8 -48 -45
-78 -118 -19 -46 -27 -84 -29 -151 -2 -49 -6 -91 -9 -94 -3 -3 -5 0 -5 7 0 7
-5 9 -12 5 -6 -4 -8 -3 -4 4 3 6 -28 54 -69 107 l-75 96 20 67 c20 65 28 170
16 222 -3 14 -8 37 -12 53 -3 15 -9 27 -13 27 -4 0 -7 10 -8 21 -1 12 -9 29
-17 38 -8 9 -16 21 -18 26 -2 6 -10 10 -18 10 -10 0 -15 10 -15 26 0 36 -32
71 -59 63 -15 -4 -17 -3 -7 4 16 11 6 18 -31 20 -57 4 -86 -93 -68 -223 7 -47
16 -82 21 -79 5 3 6 -3 2 -13 -6 -16 -5 -17 13 -3 18 14 18 14 5 -2 -19 -25
-24 -23 -67 22 -20 21 -42 36 -47 33 -6 -3 -7 -1 -3 6 4 6 1 14 -7 17 -11 4
-14 29 -13 117 1 90 -3 121 -18 155 -10 23 -23 42 -28 42 -4 0 -7 4 -6 8 6 17
-64 113 -78 108 -7 -3 -16 0 -20 6 -5 7 -2 8 6 3 9 -6 11 -4 5 4 -4 7 -16 11
-26 8 -11 -3 -17 -1 -13 4 9 15 -24 10 -40 -7 -30 -29 -31 -58 -10 -191 5 -31
3 -43 -6 -43 -18 0 -90 53 -90 67 0 17 -68 145 -89 168 -66 71 -99 97 -184
140 -133 67 -227 74 -263 20 -27 -41 3 -103 95 -195 112 -113 243 -170 392
-170 27 0 50 -11 95 -46 78 -60 82 -78 17 -68 -95 16 -163 -4 -163 -46 0 -24
78 -112 91 -104 5 3 9 1 9 -5 0 -19 137 -79 185 -81 61 -3 119 2 143 12 40 16
51 17 59 6 4 -7 1 -8 -8 -3 -12 8 -12 6 0 -8 7 -9 18 -14 24 -10 5 3 7 1 3 -5
-3 -6 3 -17 14 -25 11 -7 18 -16 15 -19 -3 -3 2 -11 12 -19 15 -12 16 -12 8 1
-5 9 -5 12 1 7 5 -5 9 -12 9 -15 0 -4 4 -12 8 -19 4 -6 3 -14 -3 -18 -5 -3
-10 -2 -10 3 0 10 -54 26 -80 24 -8 0 -17 3 -20 7 -6 10 -133 23 -126 13 2 -4
-10 -8 -27 -8 -153 -7 -181 -83 -61 -166 21 -15 57 -33 79 -40 22 -6 49 -17
60 -24 43 -27 117 -36 197 -23 43 6 78 15 78 20 0 5 7 5 17 2 9 -4 14 -2 11 3
-4 5 9 10 27 11 23 2 35 -2 39 -13 3 -9 13 -14 21 -11 10 4 12 1 8 -10 -5 -12
-3 -14 7 -8 8 5 11 4 7 -2 -8 -13 51 -88 67 -87 7 1 13 -5 13 -12 0 -7 -5 -10
-11 -7 -6 4 -1 -6 12 -22 25 -32 23 -42 -6 -26 -13 7 -22 7 -31 -2 -10 -9 -11
-9 -6 4 10 25 -67 51 -171 56 -92 5 -204 -10 -204 -28 0 -6 -4 -8 -9 -4 -15 9
-90 -47 -97 -73 -6 -22 22 -80 33 -68 3 2 14 -3 24 -13 21 -19 76 -38 142 -49
60 -10 181 -5 185 7 2 5 9 8 16 5 8 -3 16 2 19 10 4 9 12 16 19 16 9 0 8 -3
-2 -10 -8 -5 -10 -10 -5 -10 18 0 130 67 130 78 0 6 4 14 9 19 5 5 6 3 2 -4
-9 -15 10 -18 19 -3 4 6 11 8 16 4 5 -3 7 -10 4 -15 -8 -12 34 -71 46 -64 5 4
6 -1 3 -9 -3 -8 4 -24 15 -35 12 -12 19 -21 16 -21 -3 0 9 -23 26 -50 17 -28
35 -47 41 -43 6 3 8 1 5 -5 -10 -15 3 -43 17 -35 6 3 8 3 4 -2 -4 -4 -3 -17 3
-27 8 -14 8 -23 0 -31 -8 -8 -11 -8 -11 1 0 13 -100 63 -112 56 -4 -3 -8 -1
-8 5 0 12 -133 35 -157 27 -10 -3 -41 -8 -68 -10 -65 -6 -141 -30 -138 -43 1
-6 -6 -9 -15 -6 -18 4 -64 -34 -82 -67 -11 -20 11 -66 29 -62 7 1 10 -2 6 -7
-9 -16 30 -32 45 -18 7 7 10 7 7 1 -3 -6 8 -18 24 -28 40 -24 238 -34 284 -15
17 6 39 14 50 16 10 2 22 8 26 14 3 6 9 10 13 10 9 -2 59 25 102 54 20 14 40
25 44 25 3 0 14 -16 23 -35 9 -19 21 -35 27 -35 5 0 9 -4 7 -8 -1 -5 11 -36
27 -70 25 -52 33 -61 50 -57 19 5 19 5 4 -5 -17 -10 -17 -13 -2 -41 8 -17 14
-32 12 -34 -2 -2 -30 5 -63 16 -126 43 -272 31 -402 -32 -60 -28 -113 -83
-113 -117 0 -17 50 -63 61 -56 5 3 9 1 9 -5 0 -5 15 -13 32 -17 18 -4 35 -8
38 -9 66 -17 244 -9 260 13 3 4 12 8 20 10 24 4 62 24 98 50 28 21 31 26 20
40 -12 15 -11 16 5 3 15 -12 21 -11 42 9 22 21 45 21 45 -1 0 -5 13 -37 29
-71 16 -35 37 -84 46 -110 10 -27 22 -48 26 -48 5 0 8 -3 8 -7 -3 -20 2 -44 9
-40 4 3 7 -8 8 -24 1 -17 8 -35 17 -42 25 -18 6 -43 -21 -28 -11 6 -28 8 -36
5 -11 -4 -15 -2 -11 8 4 10 -13 21 -62 38 -56 20 -86 24 -167 23 -54 0 -101
-5 -105 -9 -3 -5 -15 -10 -26 -12 -11 -1 -27 -4 -35 -7 -8 -2 -18 -4 -22 -4
-5 -1 -8 -6 -8 -12 0 -5 5 -7 12 -3 7 4 8 3 4 -5 -6 -8 -12 -9 -20 -2 -9 8
-18 6 -32 -4 -33 -25 -49 -17 -115 58 -236 269 -550 538 -829 711 -52 32 -111
69 -130 81 -168 108 -588 307 -795 378 -84 28 -100 30 -240 31 -164 0 -212 -8
-360 -66 -279 -108 -478 -316 -515 -538 -40 -237 137 -465 490 -633 170 -80
298 -122 614 -198 682 -165 976 -263 1304 -435 113 -59 320 -180 332 -193 3
-3 30 -23 60 -44 221 -150 554 -439 685 -593 93 -110 256 -464 351 -759 26
-82 48 -152 50 -153 1 -2 12 -1 24 3 17 5 20 12 16 31 -4 14 -8 156 -10 317
-4 324 -28 615 -71 863 -6 31 -5 32 40 38 25 4 72 16 103 27 103 36 95 37 90
-7 -3 -21 -15 -127 -27 -234 -12 -107 -34 -276 -48 -375 -18 -128 -27 -243
-30 -397 -6 -213 -5 -218 14 -218 19 0 20 9 26 223 5 204 23 394 48 507 5 25
30 87 55 138 56 115 189 350 215 378 11 11 16 24 12 27 -3 4 -2 7 4 7 13 0 46
49 46 67 0 7 4 10 8 8 3 -3 22 18 40 46 l34 51 219 -6 c383 -9 718 15 914 64
155 40 297 133 467 304 245 248 438 575 572 964 25 75 47 138 48 140 1 1 35
-5 76 -13 130 -28 317 -45 595 -55 148 -5 278 -12 287 -16 90 -34 -173 -586
-628 -1322 -47 -75 -85 -142 -85 -148 0 -19 128 -133 156 -140 23 -6 43 10
185 152 88 88 203 207 256 267 53 59 100 107 103 107 3 0 11 -64 18 -142 13
-149 35 -310 52 -388 6 -25 24 -115 41 -200 16 -85 34 -168 39 -185 5 -16 19
-95 30 -175 37 -253 86 -463 167 -715 42 -132 38 -124 63 -118 16 4 20 14 20
49 0 49 47 186 112 324 41 88 53 103 160 206 290 278 520 395 1015 519 325 81
475 160 538 286 47 92 21 192 -71 280 -137 130 -316 163 -483 90 -100 -44
-225 -119 -327 -197 -47 -35 -89 -64 -94 -64 -12 0 -215 -205 -274 -277 -28
-34 -71 -93 -96 -132 -25 -39 -48 -71 -52 -71 -13 0 -87 -129 -161 -283 -42
-86 -77 -160 -77 -163 0 -10 -143 -309 -151 -314 -3 -3 -16 -35 -29 -72 -15
-44 -27 -65 -35 -62 -7 3 -29 60 -48 127 -79 268 -143 618 -133 722 10 95 16
138 26 165 5 14 11 50 14 80 5 61 59 310 77 356 6 16 26 79 45 139 132 435
344 839 644 1226 51 66 179 220 283 342 241 281 329 392 410 514 221 335 282
626 176 836 -101 200 -369 310 -672 276z m-6303 -795 c3 -8 2 -12 -4 -9 -6 3
-10 10 -10 16 0 14 7 11 14 -7z m464 -79 c-3 -3 -9 2 -12 12 -6 14 -5 15 5 6
7 -7 10 -15 7 -18z m33 -278 c-10 -9 -11 -8 -5 6 3 10 9 15 12 12 3 -3 0 -11
-7 -18z m2059 -290 c0 -2 -10 -12 -22 -23 l-23 -19 19 23 c18 21 26 27 26 19z
m-1955 -216 c-9 -8 -36 -10 -30 -2 2 4 11 8 20 8 8 0 13 -3 10 -6z m-135 -95
c-7 -7 -13 -7 -20 0 -6 6 -3 10 10 10 13 0 16 -4 10 -10z m695 -4 c-3 -3 -11
0 -18 7 -9 10 -8 11 6 5 10 -3 15 -9 12 -12z m-77 -87 c-3 -3 -9 2 -12 12 -6
14 -5 15 5 6 7 -7 10 -15 7 -18z m-173 -415 c3 -5 1 -10 -4 -10 -6 0 -11 5
-11 10 0 6 2 10 4 10 3 0 8 -4 11 -10z m312 -45 c0 -8 -4 -12 -9 -9 -5 3 -6
10 -3 15 9 13 12 11 12 -6z m-228 -222 c-3 -18 14 -73 23 -73 5 0 6 -4 3 -10
-5 -8 28 -123 52 -180 3 -8 7 -19 8 -25 1 -5 3 -14 5 -20 1 -5 3 -14 4 -20 11
-56 20 -85 28 -85 5 0 6 -5 3 -11 -5 -7 -13 -5 -24 5 -10 9 -21 13 -25 9 -4
-5 -6 -1 -4 7 2 9 -4 14 -15 14 -10 -1 -16 0 -13 3 8 8 -32 41 -78 65 -31 16
-40 17 -47 6 -7 -10 -9 -9 -9 4 0 12 -13 19 -47 25 -27 4 -54 7 -61 6 -7 0
-11 2 -8 5 4 3 -29 42 -71 86 -73 75 -76 81 -53 84 14 2 31 9 39 15 12 10 13
9 6 -2 -7 -12 0 -13 37 -8 64 9 160 46 152 59 -4 7 -2 8 4 4 7 -4 29 5 49 19
41 27 44 28 42 18z m-159 -298 c0 -2 -9 -3 -19 -2 -11 0 -18 5 -15 9 4 6 34 0
34 -7z m157 -52 c-4 -3 -1 -13 6 -22 11 -14 10 -14 -5 -2 -16 12 -16 31 -1 31
4 0 3 -3 0 -7z m38 -81 c-3 -3 -11 0 -18 7 -9 10 -8 11 6 5 10 -3 15 -9 12
-12z m96 -142 l2 -85 -44 3 c-86 6 -149 23 -160 43 -19 37 -7 73 31 91 26 13
154 38 167 33 1 0 3 -38 4 -85z m243 -155 c-4 -8 -7 -15 -9 -15 -2 0 -5 7 -9
15 -3 9 0 15 9 15 9 0 12 -6 9 -15z"/>
<path d="M3153 5235 c0 -8 4 -12 9 -9 5 3 6 10 3 15 -9 13 -12 11 -12 -6z"/>
<path d="M7277 2249 c-79 -46 -155 -469 -84 -469 19 0 66 46 119 116 23 32 51
67 62 77 20 21 50 85 60 131 6 25 5 28 -8 17 -25 -21 -78 -10 -95 21 -14 25
-14 31 7 72 l22 46 -33 0 c-17 0 -40 -5 -50 -11z"/>
</g>
</svg>
